<svg aria-roledescription="er" role="graphics-document document" viewBox="0 0 1324.33984375 584" style="max-width: 1324.34px; background-color: white;" xmlns:xlink="http://www.w3.org/1999/xlink" xmlns="http://www.w3.org/2000/svg" width="100%" id="mermaid-0"><style>#mermaid-0{font-family:"trebuchet ms",verdana,arial,sans-serif;font-size:16px;fill:#ccc;}#mermaid-0 .error-icon{fill:#a44141;}#mermaid-0 .error-text{fill:#ddd;stroke:#ddd;}#mermaid-0 .edge-thickness-normal{stroke-width:2px;}#mermaid-0 .edge-thickness-thick{stroke-width:3.5px;}#mermaid-0 .edge-pattern-solid{stroke-dasharray:0;}#mermaid-0 .edge-pattern-dashed{stroke-dasharray:3;}#mermaid-0 .edge-pattern-dotted{stroke-dasharray:2;}#mermaid-0 .marker{fill:lightgrey;stroke:lightgrey;}#mermaid-0 .marker.cross{stroke:lightgrey;}#mermaid-0 svg{font-family:"trebuchet ms",verdana,arial,sans-serif;font-size:16px;}#mermaid-0 .entityBox{fill:#1f2020;stroke:#81B1DB;}#mermaid-0 .attributeBoxOdd{fill:hsl(0, 0%, 32%);stroke:#81B1DB;}#mermaid-0 .attributeBoxEven{fill:hsl(0, 0%, 22%);stroke:#81B1DB;}#mermaid-0 .relationshipLabelBox{fill:hsl(20, 1.5873015873%, 12.3529411765%);opacity:0.7;background-color:hsl(20, 1.5873015873%, 12.3529411765%);}#mermaid-0 .relationshipLabelBox rect{opacity:0.5;}#mermaid-0 .relationshipLine{stroke:lightgrey;}#mermaid-0 .entityTitleText{text-anchor:middle;font-size:18px;fill:#ccc;}#mermaid-0 :root{--mermaid-font-family:"trebuchet ms",verdana,arial,sans-serif;}</style><g/><defs><marker orient="auto" markerHeight="18" markerWidth="18" refY="9" refX="0" id="ONLY_ONE_START"><path d="M9,0 L9,18 M15,0 L15,18" fill="none" stroke="gray"/></marker></defs><defs><marker orient="auto" markerHeight="18" markerWidth="18" refY="9" refX="18" id="ONLY_ONE_END"><path d="M3,0 L3,18 M9,0 L9,18" fill="none" stroke="gray"/></marker></defs><defs><marker orient="auto" markerHeight="18" markerWidth="30" refY="9" refX="0" id="ZERO_OR_ONE_START"><circle r="6" cy="9" cx="21" fill="white" stroke="gray"/><path d="M9,0 L9,18" fill="none" stroke="gray"/></marker></defs><defs><marker orient="auto" markerHeight="18" markerWidth="30" refY="9" refX="30" id="ZERO_OR_ONE_END"><circle r="6" cy="9" cx="9" fill="white" stroke="gray"/><path d="M21,0 L21,18" fill="none" stroke="gray"/></marker></defs><defs><marker orient="auto" markerHeight="36" markerWidth="45" refY="18" refX="18" id="ONE_OR_MORE_START"><path d="M0,18 Q 18,0 36,18 Q 18,36 0,18 M42,9 L42,27" fill="none" stroke="gray"/></marker></defs><defs><marker orient="auto" markerHeight="36" markerWidth="45" refY="18" refX="27" id="ONE_OR_MORE_END"><path d="M3,9 L3,27 M9,18 Q27,0 45,18 Q27,36 9,18" fill="none" stroke="gray"/></marker></defs><defs><marker orient="auto" markerHeight="36" markerWidth="57" refY="18" refX="18" id="ZERO_OR_MORE_START"><circle r="6" cy="18" cx="48" fill="white" stroke="gray"/><path d="M0,18 Q18,0 36,18 Q18,36 0,18" fill="none" stroke="gray"/></marker></defs><defs><marker orient="auto" markerHeight="36" markerWidth="57" refY="18" refX="39" id="ZERO_OR_MORE_END"><circle r="6" cy="18" cx="9" fill="white" stroke="gray"/><path d="M21,18 Q39,0 57,18 Q39,36 21,18" fill="none" stroke="gray"/></marker></defs><path style="stroke: gray; fill: none;" marker-start="url(#ZERO_OR_MORE_START)" marker-end="url(#ONLY_ONE_END)" d="M352.078125,286L352.078125,294.3333333333333C352.078125,302.6666666666667,352.078125,319.3333333333333,375.373046875,341.370875835579C398.66796875,363.4084183378247,445.2578125,390.8168366756493,468.552734375,404.5210458445617L491.84765625,418.225255013474" class="er relationshipLine"/><path style="stroke: gray; fill: none;" marker-start="url(#ZERO_OR_MORE_START)" marker-end="url(#ONLY_ONE_END)" d="M623.05078125,198L623.05078125,221C623.05078125,244,623.05078125,290,620.0555024730216,325C617.0602236960432,360,611.0696661420864,384,608.074387365108,396L605.0791085881295,408" class="er relationshipLine"/><path style="stroke: gray; fill: none;" marker-start="url(#ZERO_OR_MORE_START)" marker-end="url(#ONLY_ONE_END)" d="M1018.078125,208.70345654379156L991.0686848958334,229.91954711982632C964.0592447916666,251.13563769586105,910.0403645833334,293.56781884793054,854.5045572916666,329.59776253790596C798.96875,365.6277062278814,741.916015625,395.2554124557627,713.3896484375,410.0692655697034L684.86328125,424.88311868364406" class="er relationshipLine"/><path style="stroke: gray; fill: none;" marker-start="url(#ZERO_OR_MORE_START)" marker-end="url(#ONLY_ONE_END)" d="M1063.0744962431695,209L1053.2782260359745,230.16666666666666C1043.4819558287797,251.33333333333334,1023.8894154143899,293.6666666666667,1014.0931452071949,323.1666666666667C1004.296875,352.6666666666667,1004.296875,369.3333333333333,1004.296875,377.6666666666667L1004.296875,386" class="er relationshipLine"/><path style="stroke: gray; fill: none;" marker-start="url(#ZERO_OR_ONE_START)" marker-end="url(#ONLY_ONE_END)" d="M1139.5903773907103,209L1158.715288450592,230.16666666666666C1177.8401995104734,251.33333333333334,1216.0900216302368,293.6666666666667,1235.2149326901183,330.5C1254.33984375,367.3333333333333,1254.33984375,398.6666666666667,1254.33984375,414.3333333333333L1254.33984375,430" class="er relationshipLine"/><g transform="translate(1204.33984375,430 )" id="entity-ProjectRole-3d4a9a3a-f352-5bae-8fb1-ef43019ae036"><rect height="90" width="100" y="0" x="0" class="er entityBox"/><text style="dominant-baseline: middle; text-anchor: middle; font-size: 12px;" transform="translate(50,12)" y="0" x="0" id="text-entity-ProjectRole-3d4a9a3a-f352-5bae-8fb1-ef43019ae036" class="er entityLabel">ProjectRole</text><rect height="22" width="50" y="24" x="0" class="er attributeBoxOdd"/><text style="dominant-baseline: middle; font-size: 10.2px;" transform="translate(5,35)" y="0" x="0" id="text-entity-ProjectRole-3d4a9a3a-f352-5bae-8fb1-ef43019ae036-attr-1-type" class="er entityLabel">OWNER</text><rect height="22" width="50" y="24" x="50" class="er attributeBoxOdd"/><text style="dominant-baseline: middle; font-size: 10.2px;" transform="translate(55,35)" y="0" x="0" id="text-entity-ProjectRole-3d4a9a3a-f352-5bae-8fb1-ef43019ae036-attr-1-name" class="er entityLabel">OWNER</text><rect height="22" width="50" y="46" x="0" class="er attributeBoxEven"/><text style="dominant-baseline: middle; font-size: 10.2px;" transform="translate(5,57)" y="0" x="0" id="text-entity-ProjectRole-3d4a9a3a-f352-5bae-8fb1-ef43019ae036-attr-2-type" class="er entityLabel">ADMIN</text><rect height="22" width="50" y="46" x="50" class="er attributeBoxEven"/><text style="dominant-baseline: middle; font-size: 10.2px;" transform="translate(55,57)" y="0" x="0" id="text-entity-ProjectRole-3d4a9a3a-f352-5bae-8fb1-ef43019ae036-attr-2-name" class="er entityLabel">ADMIN</text><rect height="22" width="50" y="68" x="0" class="er attributeBoxOdd"/><text style="dominant-baseline: middle; font-size: 10.2px;" transform="translate(5,79)" y="0" x="0" id="text-entity-ProjectRole-3d4a9a3a-f352-5bae-8fb1-ef43019ae036-attr-3-type" class="er entityLabel">MEMBER</text><rect height="22" width="50" y="68" x="50" class="er attributeBoxOdd"/><text style="dominant-baseline: middle; font-size: 10.2px;" transform="translate(55,79)" y="0" x="0" id="text-entity-ProjectRole-3d4a9a3a-f352-5bae-8fb1-ef43019ae036-attr-3-name" class="er entityLabel">MEMBER</text></g><g transform="translate(20,108 )" id="entity-Example-796673e3-c149-5793-9d7b-ab288625522f"><rect height="90" width="132.875" y="0" x="0" class="er entityBox"/><text style="dominant-baseline: middle; text-anchor: middle; font-size: 12px;" transform="translate(66.4375,12)" y="0" x="0" id="text-entity-Example-796673e3-c149-5793-9d7b-ab288625522f" class="er entityLabel">Example</text><rect height="22" width="53.6640625" y="24" x="0" class="er attributeBoxOdd"/><text style="dominant-baseline: middle; font-size: 10.2px;" transform="translate(5,35)" y="0" x="0" id="text-entity-Example-796673e3-c149-5793-9d7b-ab288625522f-attr-1-type" class="er entityLabel">String</text><rect height="22" width="57.6484375" y="24" x="53.6640625" class="er attributeBoxOdd"/><text style="dominant-baseline: middle; font-size: 10.2px;" transform="translate(58.6640625,35)" y="0" x="0" id="text-entity-Example-796673e3-c149-5793-9d7b-ab288625522f-attr-1-name" class="er entityLabel">id</text><rect height="22" width="21.5625" y="24" x="111.3125" class="er attributeBoxOdd"/><text style="dominant-baseline: middle; font-size: 10.2px;" transform="translate(116.3125,35)" y="0" x="0" id="text-entity-Example-796673e3-c149-5793-9d7b-ab288625522f-attr-1-key" class="er entityLabel">PK</text><rect height="22" width="53.6640625" y="46" x="0" class="er attributeBoxEven"/><text style="dominant-baseline: middle; font-size: 10.2px;" transform="translate(5,57)" y="0" x="0" id="text-entity-Example-796673e3-c149-5793-9d7b-ab288625522f-attr-2-type" class="er entityLabel">DateTime</text><rect height="22" width="57.6484375" y="46" x="53.6640625" class="er attributeBoxEven"/><text style="dominant-baseline: middle; font-size: 10.2px;" transform="translate(58.6640625,57)" y="0" x="0" id="text-entity-Example-796673e3-c149-5793-9d7b-ab288625522f-attr-2-name" class="er entityLabel">createdAt</text><rect height="22" width="21.5625" y="46" x="111.3125" class="er attributeBoxEven"/><text style="dominant-baseline: middle; font-size: 10.2px;" transform="translate(116.3125,57)" y="0" x="0" id="text-entity-Example-796673e3-c149-5793-9d7b-ab288625522f-attr-2-key" class="er entityLabel"/><rect height="22" width="53.6640625" y="68" x="0" class="er attributeBoxOdd"/><text style="dominant-baseline: middle; font-size: 10.2px;" transform="translate(5,79)" y="0" x="0" id="text-entity-Example-796673e3-c149-5793-9d7b-ab288625522f-attr-3-type" class="er entityLabel">DateTime</text><rect height="22" width="57.6484375" y="68" x="53.6640625" class="er attributeBoxOdd"/><text style="dominant-baseline: middle; font-size: 10.2px;" transform="translate(58.6640625,79)" y="0" x="0" id="text-entity-Example-796673e3-c149-5793-9d7b-ab288625522f-attr-3-name" class="er entityLabel">updatedAt</text><rect height="22" width="21.5625" y="68" x="111.3125" class="er attributeBoxOdd"/><text style="dominant-baseline: middle; font-size: 10.2px;" transform="translate(116.3125,79)" y="0" x="0" id="text-entity-Example-796673e3-c149-5793-9d7b-ab288625522f-attr-3-key" class="er entityLabel"/></g><g transform="translate(252.875,20 )" id="entity-Account-3e57c4b6-cd9d-514f-a2f6-ac5478bb332e"><rect height="266" width="198.40625" y="0" x="0" class="er entityBox"/><text style="dominant-baseline: middle; text-anchor: middle; font-size: 12px;" transform="translate(99.203125,12)" y="0" x="0" id="text-entity-Account-3e57c4b6-cd9d-514f-a2f6-ac5478bb332e" class="er entityLabel">Account</text><rect height="22" width="36.5234375" y="24" x="0" class="er attributeBoxOdd"/><text style="dominant-baseline: middle; font-size: 10.2px;" transform="translate(5,35)" y="0" x="0" id="text-entity-Account-3e57c4b6-cd9d-514f-a2f6-ac5478bb332e-attr-1-type" class="er entityLabel">String</text><rect height="22" width="93.5390625" y="24" x="36.5234375" class="er attributeBoxOdd"/><text style="dominant-baseline: middle; font-size: 10.2px;" transform="translate(41.5234375,35)" y="0" x="0" id="text-entity-Account-3e57c4b6-cd9d-514f-a2f6-ac5478bb332e-attr-1-name" class="er entityLabel">id</text><rect height="22" width="21.5625" y="24" x="130.0625" class="er attributeBoxOdd"/><text style="dominant-baseline: middle; font-size: 10.2px;" transform="translate(135.0625,35)" y="0" x="0" id="text-entity-Account-3e57c4b6-cd9d-514f-a2f6-ac5478bb332e-attr-1-key" class="er entityLabel">PK</text><rect height="22" width="46.78125" y="24" x="151.625" class="er attributeBoxOdd"/><text style="dominant-baseline: middle; font-size: 10.2px;" transform="translate(156.625,35)" y="0" x="0" id="text-entity-Account-3e57c4b6-cd9d-514f-a2f6-ac5478bb332e-attr-1-comment" class="er entityLabel"/><rect height="22" width="36.5234375" y="46" x="0" class="er attributeBoxEven"/><text style="dominant-baseline: middle; font-size: 10.2px;" transform="translate(5,57)" y="0" x="0" id="text-entity-Account-3e57c4b6-cd9d-514f-a2f6-ac5478bb332e-attr-2-type" class="er entityLabel">String</text><rect height="22" width="93.5390625" y="46" x="36.5234375" class="er attributeBoxEven"/><text style="dominant-baseline: middle; font-size: 10.2px;" transform="translate(41.5234375,57)" y="0" x="0" id="text-entity-Account-3e57c4b6-cd9d-514f-a2f6-ac5478bb332e-attr-2-name" class="er entityLabel">type</text><rect height="22" width="21.5625" y="46" x="130.0625" class="er attributeBoxEven"/><text style="dominant-baseline: middle; font-size: 10.2px;" transform="translate(135.0625,57)" y="0" x="0" id="text-entity-Account-3e57c4b6-cd9d-514f-a2f6-ac5478bb332e-attr-2-key" class="er entityLabel"/><rect height="22" width="46.78125" y="46" x="151.625" class="er attributeBoxEven"/><text style="dominant-baseline: middle; font-size: 10.2px;" transform="translate(156.625,57)" y="0" x="0" id="text-entity-Account-3e57c4b6-cd9d-514f-a2f6-ac5478bb332e-attr-2-comment" class="er entityLabel"/><rect height="22" width="36.5234375" y="68" x="0" class="er attributeBoxOdd"/><text style="dominant-baseline: middle; font-size: 10.2px;" transform="translate(5,79)" y="0" x="0" id="text-entity-Account-3e57c4b6-cd9d-514f-a2f6-ac5478bb332e-attr-3-type" class="er entityLabel">String</text><rect height="22" width="93.5390625" y="68" x="36.5234375" class="er attributeBoxOdd"/><text style="dominant-baseline: middle; font-size: 10.2px;" transform="translate(41.5234375,79)" y="0" x="0" id="text-entity-Account-3e57c4b6-cd9d-514f-a2f6-ac5478bb332e-attr-3-name" class="er entityLabel">provider</text><rect height="22" width="21.5625" y="68" x="130.0625" class="er attributeBoxOdd"/><text style="dominant-baseline: middle; font-size: 10.2px;" transform="translate(135.0625,79)" y="0" x="0" id="text-entity-Account-3e57c4b6-cd9d-514f-a2f6-ac5478bb332e-attr-3-key" class="er entityLabel"/><rect height="22" width="46.78125" y="68" x="151.625" class="er attributeBoxOdd"/><text style="dominant-baseline: middle; font-size: 10.2px;" transform="translate(156.625,79)" y="0" x="0" id="text-entity-Account-3e57c4b6-cd9d-514f-a2f6-ac5478bb332e-attr-3-comment" class="er entityLabel"/><rect height="22" width="36.5234375" y="90" x="0" class="er attributeBoxEven"/><text style="dominant-baseline: middle; font-size: 10.2px;" transform="translate(5,101)" y="0" x="0" id="text-entity-Account-3e57c4b6-cd9d-514f-a2f6-ac5478bb332e-attr-4-type" class="er entityLabel">String</text><rect height="22" width="93.5390625" y="90" x="36.5234375" class="er attributeBoxEven"/><text style="dominant-baseline: middle; font-size: 10.2px;" transform="translate(41.5234375,101)" y="0" x="0" id="text-entity-Account-3e57c4b6-cd9d-514f-a2f6-ac5478bb332e-attr-4-name" class="er entityLabel">providerAccountId</text><rect height="22" width="21.5625" y="90" x="130.0625" class="er attributeBoxEven"/><text style="dominant-baseline: middle; font-size: 10.2px;" transform="translate(135.0625,101)" y="0" x="0" id="text-entity-Account-3e57c4b6-cd9d-514f-a2f6-ac5478bb332e-attr-4-key" class="er entityLabel"/><rect height="22" width="46.78125" y="90" x="151.625" class="er attributeBoxEven"/><text style="dominant-baseline: middle; font-size: 10.2px;" transform="translate(156.625,101)" y="0" x="0" id="text-entity-Account-3e57c4b6-cd9d-514f-a2f6-ac5478bb332e-attr-4-comment" class="er entityLabel"/><rect height="22" width="36.5234375" y="112" x="0" class="er attributeBoxOdd"/><text style="dominant-baseline: middle; font-size: 10.2px;" transform="translate(5,123)" y="0" x="0" id="text-entity-Account-3e57c4b6-cd9d-514f-a2f6-ac5478bb332e-attr-5-type" class="er entityLabel">String</text><rect height="22" width="93.5390625" y="112" x="36.5234375" class="er attributeBoxOdd"/><text style="dominant-baseline: middle; font-size: 10.2px;" transform="translate(41.5234375,123)" y="0" x="0" id="text-entity-Account-3e57c4b6-cd9d-514f-a2f6-ac5478bb332e-attr-5-name" class="er entityLabel">refresh_token</text><rect height="22" width="21.5625" y="112" x="130.0625" class="er attributeBoxOdd"/><text style="dominant-baseline: middle; font-size: 10.2px;" transform="translate(135.0625,123)" y="0" x="0" id="text-entity-Account-3e57c4b6-cd9d-514f-a2f6-ac5478bb332e-attr-5-key" class="er entityLabel"/><rect height="22" width="46.78125" y="112" x="151.625" class="er attributeBoxOdd"/><text style="dominant-baseline: middle; font-size: 10.2px;" transform="translate(156.625,123)" y="0" x="0" id="text-entity-Account-3e57c4b6-cd9d-514f-a2f6-ac5478bb332e-attr-5-comment" class="er entityLabel">nullable</text><rect height="22" width="36.5234375" y="134" x="0" class="er attributeBoxEven"/><text style="dominant-baseline: middle; font-size: 10.2px;" transform="translate(5,145)" y="0" x="0" id="text-entity-Account-3e57c4b6-cd9d-514f-a2f6-ac5478bb332e-attr-6-type" class="er entityLabel">String</text><rect height="22" width="93.5390625" y="134" x="36.5234375" class="er attributeBoxEven"/><text style="dominant-baseline: middle; font-size: 10.2px;" transform="translate(41.5234375,145)" y="0" x="0" id="text-entity-Account-3e57c4b6-cd9d-514f-a2f6-ac5478bb332e-attr-6-name" class="er entityLabel">access_token</text><rect height="22" width="21.5625" y="134" x="130.0625" class="er attributeBoxEven"/><text style="dominant-baseline: middle; font-size: 10.2px;" transform="translate(135.0625,145)" y="0" x="0" id="text-entity-Account-3e57c4b6-cd9d-514f-a2f6-ac5478bb332e-attr-6-key" class="er entityLabel"/><rect height="22" width="46.78125" y="134" x="151.625" class="er attributeBoxEven"/><text style="dominant-baseline: middle; font-size: 10.2px;" transform="translate(156.625,145)" y="0" x="0" id="text-entity-Account-3e57c4b6-cd9d-514f-a2f6-ac5478bb332e-attr-6-comment" class="er entityLabel">nullable</text><rect height="22" width="36.5234375" y="156" x="0" class="er attributeBoxOdd"/><text style="dominant-baseline: middle; font-size: 10.2px;" transform="translate(5,167)" y="0" x="0" id="text-entity-Account-3e57c4b6-cd9d-514f-a2f6-ac5478bb332e-attr-7-type" class="er entityLabel">Int</text><rect height="22" width="93.5390625" y="156" x="36.5234375" class="er attributeBoxOdd"/><text style="dominant-baseline: middle; font-size: 10.2px;" transform="translate(41.5234375,167)" y="0" x="0" id="text-entity-Account-3e57c4b6-cd9d-514f-a2f6-ac5478bb332e-attr-7-name" class="er entityLabel">expires_at</text><rect height="22" width="21.5625" y="156" x="130.0625" class="er attributeBoxOdd"/><text style="dominant-baseline: middle; font-size: 10.2px;" transform="translate(135.0625,167)" y="0" x="0" id="text-entity-Account-3e57c4b6-cd9d-514f-a2f6-ac5478bb332e-attr-7-key" class="er entityLabel"/><rect height="22" width="46.78125" y="156" x="151.625" class="er attributeBoxOdd"/><text style="dominant-baseline: middle; font-size: 10.2px;" transform="translate(156.625,167)" y="0" x="0" id="text-entity-Account-3e57c4b6-cd9d-514f-a2f6-ac5478bb332e-attr-7-comment" class="er entityLabel">nullable</text><rect height="22" width="36.5234375" y="178" x="0" class="er attributeBoxEven"/><text style="dominant-baseline: middle; font-size: 10.2px;" transform="translate(5,189)" y="0" x="0" id="text-entity-Account-3e57c4b6-cd9d-514f-a2f6-ac5478bb332e-attr-8-type" class="er entityLabel">String</text><rect height="22" width="93.5390625" y="178" x="36.5234375" class="er attributeBoxEven"/><text style="dominant-baseline: middle; font-size: 10.2px;" transform="translate(41.5234375,189)" y="0" x="0" id="text-entity-Account-3e57c4b6-cd9d-514f-a2f6-ac5478bb332e-attr-8-name" class="er entityLabel">token_type</text><rect height="22" width="21.5625" y="178" x="130.0625" class="er attributeBoxEven"/><text style="dominant-baseline: middle; font-size: 10.2px;" transform="translate(135.0625,189)" y="0" x="0" id="text-entity-Account-3e57c4b6-cd9d-514f-a2f6-ac5478bb332e-attr-8-key" class="er entityLabel"/><rect height="22" width="46.78125" y="178" x="151.625" class="er attributeBoxEven"/><text style="dominant-baseline: middle; font-size: 10.2px;" transform="translate(156.625,189)" y="0" x="0" id="text-entity-Account-3e57c4b6-cd9d-514f-a2f6-ac5478bb332e-attr-8-comment" class="er entityLabel">nullable</text><rect height="22" width="36.5234375" y="200" x="0" class="er attributeBoxOdd"/><text style="dominant-baseline: middle; font-size: 10.2px;" transform="translate(5,211)" y="0" x="0" id="text-entity-Account-3e57c4b6-cd9d-514f-a2f6-ac5478bb332e-attr-9-type" class="er entityLabel">String</text><rect height="22" width="93.5390625" y="200" x="36.5234375" class="er attributeBoxOdd"/><text style="dominant-baseline: middle; font-size: 10.2px;" transform="translate(41.5234375,211)" y="0" x="0" id="text-entity-Account-3e57c4b6-cd9d-514f-a2f6-ac5478bb332e-attr-9-name" class="er entityLabel">scope</text><rect height="22" width="21.5625" y="200" x="130.0625" class="er attributeBoxOdd"/><text style="dominant-baseline: middle; font-size: 10.2px;" transform="translate(135.0625,211)" y="0" x="0" id="text-entity-Account-3e57c4b6-cd9d-514f-a2f6-ac5478bb332e-attr-9-key" class="er entityLabel"/><rect height="22" width="46.78125" y="200" x="151.625" class="er attributeBoxOdd"/><text style="dominant-baseline: middle; font-size: 10.2px;" transform="translate(156.625,211)" y="0" x="0" id="text-entity-Account-3e57c4b6-cd9d-514f-a2f6-ac5478bb332e-attr-9-comment" class="er entityLabel">nullable</text><rect height="22" width="36.5234375" y="222" x="0" class="er attributeBoxEven"/><text style="dominant-baseline: middle; font-size: 10.2px;" transform="translate(5,233)" y="0" x="0" id="text-entity-Account-3e57c4b6-cd9d-514f-a2f6-ac5478bb332e-attr-10-type" class="er entityLabel">String</text><rect height="22" width="93.5390625" y="222" x="36.5234375" class="er attributeBoxEven"/><text style="dominant-baseline: middle; font-size: 10.2px;" transform="translate(41.5234375,233)" y="0" x="0" id="text-entity-Account-3e57c4b6-cd9d-514f-a2f6-ac5478bb332e-attr-10-name" class="er entityLabel">id_token</text><rect height="22" width="21.5625" y="222" x="130.0625" class="er attributeBoxEven"/><text style="dominant-baseline: middle; font-size: 10.2px;" transform="translate(135.0625,233)" y="0" x="0" id="text-entity-Account-3e57c4b6-cd9d-514f-a2f6-ac5478bb332e-attr-10-key" class="er entityLabel"/><rect height="22" width="46.78125" y="222" x="151.625" class="er attributeBoxEven"/><text style="dominant-baseline: middle; font-size: 10.2px;" transform="translate(156.625,233)" y="0" x="0" id="text-entity-Account-3e57c4b6-cd9d-514f-a2f6-ac5478bb332e-attr-10-comment" class="er entityLabel">nullable</text><rect height="22" width="36.5234375" y="244" x="0" class="er attributeBoxOdd"/><text style="dominant-baseline: middle; font-size: 10.2px;" transform="translate(5,255)" y="0" x="0" id="text-entity-Account-3e57c4b6-cd9d-514f-a2f6-ac5478bb332e-attr-11-type" class="er entityLabel">String</text><rect height="22" width="93.5390625" y="244" x="36.5234375" class="er attributeBoxOdd"/><text style="dominant-baseline: middle; font-size: 10.2px;" transform="translate(41.5234375,255)" y="0" x="0" id="text-entity-Account-3e57c4b6-cd9d-514f-a2f6-ac5478bb332e-attr-11-name" class="er entityLabel">session_state</text><rect height="22" width="21.5625" y="244" x="130.0625" class="er attributeBoxOdd"/><text style="dominant-baseline: middle; font-size: 10.2px;" transform="translate(135.0625,255)" y="0" x="0" id="text-entity-Account-3e57c4b6-cd9d-514f-a2f6-ac5478bb332e-attr-11-key" class="er entityLabel"/><rect height="22" width="46.78125" y="244" x="151.625" class="er attributeBoxOdd"/><text style="dominant-baseline: middle; font-size: 10.2px;" transform="translate(156.625,255)" y="0" x="0" id="text-entity-Account-3e57c4b6-cd9d-514f-a2f6-ac5478bb332e-attr-11-comment" class="er entityLabel">nullable</text></g><g transform="translate(551.28125,108 )" id="entity-Session-087c087e-5b46-5a6f-a710-5a009604ebd7"><rect height="90" width="143.5390625" y="0" x="0" class="er entityBox"/><text style="dominant-baseline: middle; text-anchor: middle; font-size: 12px;" transform="translate(71.76953125,12)" y="0" x="0" id="text-entity-Session-087c087e-5b46-5a6f-a710-5a009604ebd7" class="er entityLabel">Session</text><rect height="22" width="53.6640625" y="24" x="0" class="er attributeBoxOdd"/><text style="dominant-baseline: middle; font-size: 10.2px;" transform="translate(5,35)" y="0" x="0" id="text-entity-Session-087c087e-5b46-5a6f-a710-5a009604ebd7-attr-1-type" class="er entityLabel">String</text><rect height="22" width="68.3125" y="24" x="53.6640625" class="er attributeBoxOdd"/><text style="dominant-baseline: middle; font-size: 10.2px;" transform="translate(58.6640625,35)" y="0" x="0" id="text-entity-Session-087c087e-5b46-5a6f-a710-5a009604ebd7-attr-1-name" class="er entityLabel">id</text><rect height="22" width="21.5625" y="24" x="121.9765625" class="er attributeBoxOdd"/><text style="dominant-baseline: middle; font-size: 10.2px;" transform="translate(126.9765625,35)" y="0" x="0" id="text-entity-Session-087c087e-5b46-5a6f-a710-5a009604ebd7-attr-1-key" class="er entityLabel">PK</text><rect height="22" width="53.6640625" y="46" x="0" class="er attributeBoxEven"/><text style="dominant-baseline: middle; font-size: 10.2px;" transform="translate(5,57)" y="0" x="0" id="text-entity-Session-087c087e-5b46-5a6f-a710-5a009604ebd7-attr-2-type" class="er entityLabel">String</text><rect height="22" width="68.3125" y="46" x="53.6640625" class="er attributeBoxEven"/><text style="dominant-baseline: middle; font-size: 10.2px;" transform="translate(58.6640625,57)" y="0" x="0" id="text-entity-Session-087c087e-5b46-5a6f-a710-5a009604ebd7-attr-2-name" class="er entityLabel">sessionToken</text><rect height="22" width="21.5625" y="46" x="121.9765625" class="er attributeBoxEven"/><text style="dominant-baseline: middle; font-size: 10.2px;" transform="translate(126.9765625,57)" y="0" x="0" id="text-entity-Session-087c087e-5b46-5a6f-a710-5a009604ebd7-attr-2-key" class="er entityLabel"/><rect height="22" width="53.6640625" y="68" x="0" class="er attributeBoxOdd"/><text style="dominant-baseline: middle; font-size: 10.2px;" transform="translate(5,79)" y="0" x="0" id="text-entity-Session-087c087e-5b46-5a6f-a710-5a009604ebd7-attr-3-type" class="er entityLabel">DateTime</text><rect height="22" width="68.3125" y="68" x="53.6640625" class="er attributeBoxOdd"/><text style="dominant-baseline: middle; font-size: 10.2px;" transform="translate(58.6640625,79)" y="0" x="0" id="text-entity-Session-087c087e-5b46-5a6f-a710-5a009604ebd7-attr-3-name" class="er entityLabel">expires</text><rect height="22" width="21.5625" y="68" x="121.9765625" class="er attributeBoxOdd"/><text style="dominant-baseline: middle; font-size: 10.2px;" transform="translate(126.9765625,79)" y="0" x="0" id="text-entity-Session-087c087e-5b46-5a6f-a710-5a009604ebd7-attr-3-key" class="er entityLabel"/></g><g transform="translate(491.84765625,408 )" id="entity-User-818c511a-4a32-5484-ba70-875d765a9175"><rect height="134" width="193.015625" y="0" x="0" class="er entityBox"/><text style="dominant-baseline: middle; text-anchor: middle; font-size: 12px;" transform="translate(96.5078125,12)" y="0" x="0" id="text-entity-User-818c511a-4a32-5484-ba70-875d765a9175" class="er entityLabel">User</text><rect height="22" width="53.6640625" y="24" x="0" class="er attributeBoxOdd"/><text style="dominant-baseline: middle; font-size: 10.2px;" transform="translate(5,35)" y="0" x="0" id="text-entity-User-818c511a-4a32-5484-ba70-875d765a9175-attr-1-type" class="er entityLabel">String</text><rect height="22" width="71.0078125" y="24" x="53.6640625" class="er attributeBoxOdd"/><text style="dominant-baseline: middle; font-size: 10.2px;" transform="translate(58.6640625,35)" y="0" x="0" id="text-entity-User-818c511a-4a32-5484-ba70-875d765a9175-attr-1-name" class="er entityLabel">id</text><rect height="22" width="21.5625" y="24" x="124.671875" class="er attributeBoxOdd"/><text style="dominant-baseline: middle; font-size: 10.2px;" transform="translate(129.671875,35)" y="0" x="0" id="text-entity-User-818c511a-4a32-5484-ba70-875d765a9175-attr-1-key" class="er entityLabel">PK</text><rect height="22" width="46.78125" y="24" x="146.234375" class="er attributeBoxOdd"/><text style="dominant-baseline: middle; font-size: 10.2px;" transform="translate(151.234375,35)" y="0" x="0" id="text-entity-User-818c511a-4a32-5484-ba70-875d765a9175-attr-1-comment" class="er entityLabel"/><rect height="22" width="53.6640625" y="46" x="0" class="er attributeBoxEven"/><text style="dominant-baseline: middle; font-size: 10.2px;" transform="translate(5,57)" y="0" x="0" id="text-entity-User-818c511a-4a32-5484-ba70-875d765a9175-attr-2-type" class="er entityLabel">String</text><rect height="22" width="71.0078125" y="46" x="53.6640625" class="er attributeBoxEven"/><text style="dominant-baseline: middle; font-size: 10.2px;" transform="translate(58.6640625,57)" y="0" x="0" id="text-entity-User-818c511a-4a32-5484-ba70-875d765a9175-attr-2-name" class="er entityLabel">name</text><rect height="22" width="21.5625" y="46" x="124.671875" class="er attributeBoxEven"/><text style="dominant-baseline: middle; font-size: 10.2px;" transform="translate(129.671875,57)" y="0" x="0" id="text-entity-User-818c511a-4a32-5484-ba70-875d765a9175-attr-2-key" class="er entityLabel"/><rect height="22" width="46.78125" y="46" x="146.234375" class="er attributeBoxEven"/><text style="dominant-baseline: middle; font-size: 10.2px;" transform="translate(151.234375,57)" y="0" x="0" id="text-entity-User-818c511a-4a32-5484-ba70-875d765a9175-attr-2-comment" class="er entityLabel">nullable</text><rect height="22" width="53.6640625" y="68" x="0" class="er attributeBoxOdd"/><text style="dominant-baseline: middle; font-size: 10.2px;" transform="translate(5,79)" y="0" x="0" id="text-entity-User-818c511a-4a32-5484-ba70-875d765a9175-attr-3-type" class="er entityLabel">String</text><rect height="22" width="71.0078125" y="68" x="53.6640625" class="er attributeBoxOdd"/><text style="dominant-baseline: middle; font-size: 10.2px;" transform="translate(58.6640625,79)" y="0" x="0" id="text-entity-User-818c511a-4a32-5484-ba70-875d765a9175-attr-3-name" class="er entityLabel">email</text><rect height="22" width="21.5625" y="68" x="124.671875" class="er attributeBoxOdd"/><text style="dominant-baseline: middle; font-size: 10.2px;" transform="translate(129.671875,79)" y="0" x="0" id="text-entity-User-818c511a-4a32-5484-ba70-875d765a9175-attr-3-key" class="er entityLabel"/><rect height="22" width="46.78125" y="68" x="146.234375" class="er attributeBoxOdd"/><text style="dominant-baseline: middle; font-size: 10.2px;" transform="translate(151.234375,79)" y="0" x="0" id="text-entity-User-818c511a-4a32-5484-ba70-875d765a9175-attr-3-comment" class="er entityLabel">nullable</text><rect height="22" width="53.6640625" y="90" x="0" class="er attributeBoxEven"/><text style="dominant-baseline: middle; font-size: 10.2px;" transform="translate(5,101)" y="0" x="0" id="text-entity-User-818c511a-4a32-5484-ba70-875d765a9175-attr-4-type" class="er entityLabel">DateTime</text><rect height="22" width="71.0078125" y="90" x="53.6640625" class="er attributeBoxEven"/><text style="dominant-baseline: middle; font-size: 10.2px;" transform="translate(58.6640625,101)" y="0" x="0" id="text-entity-User-818c511a-4a32-5484-ba70-875d765a9175-attr-4-name" class="er entityLabel">emailVerified</text><rect height="22" width="21.5625" y="90" x="124.671875" class="er attributeBoxEven"/><text style="dominant-baseline: middle; font-size: 10.2px;" transform="translate(129.671875,101)" y="0" x="0" id="text-entity-User-818c511a-4a32-5484-ba70-875d765a9175-attr-4-key" class="er entityLabel"/><rect height="22" width="46.78125" y="90" x="146.234375" class="er attributeBoxEven"/><text style="dominant-baseline: middle; font-size: 10.2px;" transform="translate(151.234375,101)" y="0" x="0" id="text-entity-User-818c511a-4a32-5484-ba70-875d765a9175-attr-4-comment" class="er entityLabel">nullable</text><rect height="22" width="53.6640625" y="112" x="0" class="er attributeBoxOdd"/><text style="dominant-baseline: middle; font-size: 10.2px;" transform="translate(5,123)" y="0" x="0" id="text-entity-User-818c511a-4a32-5484-ba70-875d765a9175-attr-5-type" class="er entityLabel">String</text><rect height="22" width="71.0078125" y="112" x="53.6640625" class="er attributeBoxOdd"/><text style="dominant-baseline: middle; font-size: 10.2px;" transform="translate(58.6640625,123)" y="0" x="0" id="text-entity-User-818c511a-4a32-5484-ba70-875d765a9175-attr-5-name" class="er entityLabel">image</text><rect height="22" width="21.5625" y="112" x="124.671875" class="er attributeBoxOdd"/><text style="dominant-baseline: middle; font-size: 10.2px;" transform="translate(129.671875,123)" y="0" x="0" id="text-entity-User-818c511a-4a32-5484-ba70-875d765a9175-attr-5-key" class="er entityLabel"/><rect height="22" width="46.78125" y="112" x="146.234375" class="er attributeBoxOdd"/><text style="dominant-baseline: middle; font-size: 10.2px;" transform="translate(151.234375,123)" y="0" x="0" id="text-entity-User-818c511a-4a32-5484-ba70-875d765a9175-attr-5-comment" class="er entityLabel">nullable</text></g><g transform="translate(794.8203125,108 )" id="entity-VerificationToken-962d7f37-815d-52d1-ae4d-eb767410e383"><rect height="90" width="123.2578125" y="0" x="0" class="er entityBox"/><text style="dominant-baseline: middle; text-anchor: middle; font-size: 12px;" transform="translate(61.62890625,12)" y="0" x="0" id="text-entity-VerificationToken-962d7f37-815d-52d1-ae4d-eb767410e383" class="er entityLabel">VerificationToken</text><rect height="22" width="62.015625" y="24" x="0" class="er attributeBoxOdd"/><text style="dominant-baseline: middle; font-size: 10.2px;" transform="translate(5,35)" y="0" x="0" id="text-entity-VerificationToken-962d7f37-815d-52d1-ae4d-eb767410e383-attr-1-type" class="er entityLabel">String</text><rect height="22" width="61.2421875" y="24" x="62.015625" class="er attributeBoxOdd"/><text style="dominant-baseline: middle; font-size: 10.2px;" transform="translate(67.015625,35)" y="0" x="0" id="text-entity-VerificationToken-962d7f37-815d-52d1-ae4d-eb767410e383-attr-1-name" class="er entityLabel">identifier</text><rect height="22" width="62.015625" y="46" x="0" class="er attributeBoxEven"/><text style="dominant-baseline: middle; font-size: 10.2px;" transform="translate(5,57)" y="0" x="0" id="text-entity-VerificationToken-962d7f37-815d-52d1-ae4d-eb767410e383-attr-2-type" class="er entityLabel">String</text><rect height="22" width="61.2421875" y="46" x="62.015625" class="er attributeBoxEven"/><text style="dominant-baseline: middle; font-size: 10.2px;" transform="translate(67.015625,57)" y="0" x="0" id="text-entity-VerificationToken-962d7f37-815d-52d1-ae4d-eb767410e383-attr-2-name" class="er entityLabel">token</text><rect height="22" width="62.015625" y="68" x="0" class="er attributeBoxOdd"/><text style="dominant-baseline: middle; font-size: 10.2px;" transform="translate(5,79)" y="0" x="0" id="text-entity-VerificationToken-962d7f37-815d-52d1-ae4d-eb767410e383-attr-3-type" class="er entityLabel">DateTime</text><rect height="22" width="61.2421875" y="68" x="62.015625" class="er attributeBoxOdd"/><text style="dominant-baseline: middle; font-size: 10.2px;" transform="translate(67.015625,79)" y="0" x="0" id="text-entity-VerificationToken-962d7f37-815d-52d1-ae4d-eb767410e383-attr-3-name" class="er entityLabel">expires</text></g><g transform="translate(1018.078125,97 )" id="entity-ProjectMember-34de2ce0-bf67-51c7-a11c-08010b1941c3"><rect height="112" width="141.828125" y="0" x="0" class="er entityBox"/><text style="dominant-baseline: middle; text-anchor: middle; font-size: 12px;" transform="translate(70.9140625,12)" y="0" x="0" id="text-entity-ProjectMember-34de2ce0-bf67-51c7-a11c-08010b1941c3" class="er entityLabel">ProjectMember</text><rect height="22" width="62.6171875" y="24" x="0" class="er attributeBoxOdd"/><text style="dominant-baseline: middle; font-size: 10.2px;" transform="translate(5,35)" y="0" x="0" id="text-entity-ProjectMember-34de2ce0-bf67-51c7-a11c-08010b1941c3-attr-1-type" class="er entityLabel">String</text><rect height="22" width="57.6484375" y="24" x="62.6171875" class="er attributeBoxOdd"/><text style="dominant-baseline: middle; font-size: 10.2px;" transform="translate(67.6171875,35)" y="0" x="0" id="text-entity-ProjectMember-34de2ce0-bf67-51c7-a11c-08010b1941c3-attr-1-name" class="er entityLabel">id</text><rect height="22" width="21.5625" y="24" x="120.265625" class="er attributeBoxOdd"/><text style="dominant-baseline: middle; font-size: 10.2px;" transform="translate(125.265625,35)" y="0" x="0" id="text-entity-ProjectMember-34de2ce0-bf67-51c7-a11c-08010b1941c3-attr-1-key" class="er entityLabel">PK</text><rect height="22" width="62.6171875" y="46" x="0" class="er attributeBoxEven"/><text style="dominant-baseline: middle; font-size: 10.2px;" transform="translate(5,57)" y="0" x="0" id="text-entity-ProjectMember-34de2ce0-bf67-51c7-a11c-08010b1941c3-attr-2-type" class="er entityLabel">DateTime</text><rect height="22" width="57.6484375" y="46" x="62.6171875" class="er attributeBoxEven"/><text style="dominant-baseline: middle; font-size: 10.2px;" transform="translate(67.6171875,57)" y="0" x="0" id="text-entity-ProjectMember-34de2ce0-bf67-51c7-a11c-08010b1941c3-attr-2-name" class="er entityLabel">createdAt</text><rect height="22" width="21.5625" y="46" x="120.265625" class="er attributeBoxEven"/><text style="dominant-baseline: middle; font-size: 10.2px;" transform="translate(125.265625,57)" y="0" x="0" id="text-entity-ProjectMember-34de2ce0-bf67-51c7-a11c-08010b1941c3-attr-2-key" class="er entityLabel"/><rect height="22" width="62.6171875" y="68" x="0" class="er attributeBoxOdd"/><text style="dominant-baseline: middle; font-size: 10.2px;" transform="translate(5,79)" y="0" x="0" id="text-entity-ProjectMember-34de2ce0-bf67-51c7-a11c-08010b1941c3-attr-3-type" class="er entityLabel">DateTime</text><rect height="22" width="57.6484375" y="68" x="62.6171875" class="er attributeBoxOdd"/><text style="dominant-baseline: middle; font-size: 10.2px;" transform="translate(67.6171875,79)" y="0" x="0" id="text-entity-ProjectMember-34de2ce0-bf67-51c7-a11c-08010b1941c3-attr-3-name" class="er entityLabel">updatedAt</text><rect height="22" width="21.5625" y="68" x="120.265625" class="er attributeBoxOdd"/><text style="dominant-baseline: middle; font-size: 10.2px;" transform="translate(125.265625,79)" y="0" x="0" id="text-entity-ProjectMember-34de2ce0-bf67-51c7-a11c-08010b1941c3-attr-3-key" class="er entityLabel"/><rect height="22" width="62.6171875" y="90" x="0" class="er attributeBoxEven"/><text style="dominant-baseline: middle; font-size: 10.2px;" transform="translate(5,101)" y="0" x="0" id="text-entity-ProjectMember-34de2ce0-bf67-51c7-a11c-08010b1941c3-attr-4-type" class="er entityLabel">ProjectRole</text><rect height="22" width="57.6484375" y="90" x="62.6171875" class="er attributeBoxEven"/><text style="dominant-baseline: middle; font-size: 10.2px;" transform="translate(67.6171875,101)" y="0" x="0" id="text-entity-ProjectMember-34de2ce0-bf67-51c7-a11c-08010b1941c3-attr-4-name" class="er entityLabel">role</text><rect height="22" width="21.5625" y="90" x="120.265625" class="er attributeBoxEven"/><text style="dominant-baseline: middle; font-size: 10.2px;" transform="translate(125.265625,101)" y="0" x="0" id="text-entity-ProjectMember-34de2ce0-bf67-51c7-a11c-08010b1941c3-attr-4-key" class="er entityLabel"/></g><g transform="translate(904.25390625,386 )" id="entity-Project-c2395ed5-a5fa-58df-9cbe-a2926add311c"><rect height="178" width="200.0859375" y="0" x="0" class="er entityBox"/><text style="dominant-baseline: middle; text-anchor: middle; font-size: 12px;" transform="translate(100.04296875,12)" y="0" x="0" id="text-entity-Project-c2395ed5-a5fa-58df-9cbe-a2926add311c" class="er entityLabel">Project</text><rect height="22" width="53.6640625" y="24" x="0" class="er attributeBoxOdd"/><text style="dominant-baseline: middle; font-size: 10.2px;" transform="translate(5,35)" y="0" x="0" id="text-entity-Project-c2395ed5-a5fa-58df-9cbe-a2926add311c-attr-1-type" class="er entityLabel">String</text><rect height="22" width="78.078125" y="24" x="53.6640625" class="er attributeBoxOdd"/><text style="dominant-baseline: middle; font-size: 10.2px;" transform="translate(58.6640625,35)" y="0" x="0" id="text-entity-Project-c2395ed5-a5fa-58df-9cbe-a2926add311c-attr-1-name" class="er entityLabel">id</text><rect height="22" width="21.5625" y="24" x="131.7421875" class="er attributeBoxOdd"/><text style="dominant-baseline: middle; font-size: 10.2px;" transform="translate(136.7421875,35)" y="0" x="0" id="text-entity-Project-c2395ed5-a5fa-58df-9cbe-a2926add311c-attr-1-key" class="er entityLabel">PK</text><rect height="22" width="46.78125" y="24" x="153.3046875" class="er attributeBoxOdd"/><text style="dominant-baseline: middle; font-size: 10.2px;" transform="translate(158.3046875,35)" y="0" x="0" id="text-entity-Project-c2395ed5-a5fa-58df-9cbe-a2926add311c-attr-1-comment" class="er entityLabel"/><rect height="22" width="53.6640625" y="46" x="0" class="er attributeBoxEven"/><text style="dominant-baseline: middle; font-size: 10.2px;" transform="translate(5,57)" y="0" x="0" id="text-entity-Project-c2395ed5-a5fa-58df-9cbe-a2926add311c-attr-2-type" class="er entityLabel">DateTime</text><rect height="22" width="78.078125" y="46" x="53.6640625" class="er attributeBoxEven"/><text style="dominant-baseline: middle; font-size: 10.2px;" transform="translate(58.6640625,57)" y="0" x="0" id="text-entity-Project-c2395ed5-a5fa-58df-9cbe-a2926add311c-attr-2-name" class="er entityLabel">createdAt</text><rect height="22" width="21.5625" y="46" x="131.7421875" class="er attributeBoxEven"/><text style="dominant-baseline: middle; font-size: 10.2px;" transform="translate(136.7421875,57)" y="0" x="0" id="text-entity-Project-c2395ed5-a5fa-58df-9cbe-a2926add311c-attr-2-key" class="er entityLabel"/><rect height="22" width="46.78125" y="46" x="153.3046875" class="er attributeBoxEven"/><text style="dominant-baseline: middle; font-size: 10.2px;" transform="translate(158.3046875,57)" y="0" x="0" id="text-entity-Project-c2395ed5-a5fa-58df-9cbe-a2926add311c-attr-2-comment" class="er entityLabel"/><rect height="22" width="53.6640625" y="68" x="0" class="er attributeBoxOdd"/><text style="dominant-baseline: middle; font-size: 10.2px;" transform="translate(5,79)" y="0" x="0" id="text-entity-Project-c2395ed5-a5fa-58df-9cbe-a2926add311c-attr-3-type" class="er entityLabel">DateTime</text><rect height="22" width="78.078125" y="68" x="53.6640625" class="er attributeBoxOdd"/><text style="dominant-baseline: middle; font-size: 10.2px;" transform="translate(58.6640625,79)" y="0" x="0" id="text-entity-Project-c2395ed5-a5fa-58df-9cbe-a2926add311c-attr-3-name" class="er entityLabel">updatedAt</text><rect height="22" width="21.5625" y="68" x="131.7421875" class="er attributeBoxOdd"/><text style="dominant-baseline: middle; font-size: 10.2px;" transform="translate(136.7421875,79)" y="0" x="0" id="text-entity-Project-c2395ed5-a5fa-58df-9cbe-a2926add311c-attr-3-key" class="er entityLabel"/><rect height="22" width="46.78125" y="68" x="153.3046875" class="er attributeBoxOdd"/><text style="dominant-baseline: middle; font-size: 10.2px;" transform="translate(158.3046875,79)" y="0" x="0" id="text-entity-Project-c2395ed5-a5fa-58df-9cbe-a2926add311c-attr-3-comment" class="er entityLabel"/><rect height="22" width="53.6640625" y="90" x="0" class="er attributeBoxEven"/><text style="dominant-baseline: middle; font-size: 10.2px;" transform="translate(5,101)" y="0" x="0" id="text-entity-Project-c2395ed5-a5fa-58df-9cbe-a2926add311c-attr-4-type" class="er entityLabel">String</text><rect height="22" width="78.078125" y="90" x="53.6640625" class="er attributeBoxEven"/><text style="dominant-baseline: middle; font-size: 10.2px;" transform="translate(58.6640625,101)" y="0" x="0" id="text-entity-Project-c2395ed5-a5fa-58df-9cbe-a2926add311c-attr-4-name" class="er entityLabel">name</text><rect height="22" width="21.5625" y="90" x="131.7421875" class="er attributeBoxEven"/><text style="dominant-baseline: middle; font-size: 10.2px;" transform="translate(136.7421875,101)" y="0" x="0" id="text-entity-Project-c2395ed5-a5fa-58df-9cbe-a2926add311c-attr-4-key" class="er entityLabel"/><rect height="22" width="46.78125" y="90" x="153.3046875" class="er attributeBoxEven"/><text style="dominant-baseline: middle; font-size: 10.2px;" transform="translate(158.3046875,101)" y="0" x="0" id="text-entity-Project-c2395ed5-a5fa-58df-9cbe-a2926add311c-attr-4-comment" class="er entityLabel"/><rect height="22" width="53.6640625" y="112" x="0" class="er attributeBoxOdd"/><text style="dominant-baseline: middle; font-size: 10.2px;" transform="translate(5,123)" y="0" x="0" id="text-entity-Project-c2395ed5-a5fa-58df-9cbe-a2926add311c-attr-5-type" class="er entityLabel">String</text><rect height="22" width="78.078125" y="112" x="53.6640625" class="er attributeBoxOdd"/><text style="dominant-baseline: middle; font-size: 10.2px;" transform="translate(58.6640625,123)" y="0" x="0" id="text-entity-Project-c2395ed5-a5fa-58df-9cbe-a2926add311c-attr-5-name" class="er entityLabel">description</text><rect height="22" width="21.5625" y="112" x="131.7421875" class="er attributeBoxOdd"/><text style="dominant-baseline: middle; font-size: 10.2px;" transform="translate(136.7421875,123)" y="0" x="0" id="text-entity-Project-c2395ed5-a5fa-58df-9cbe-a2926add311c-attr-5-key" class="er entityLabel"/><rect height="22" width="46.78125" y="112" x="153.3046875" class="er attributeBoxOdd"/><text style="dominant-baseline: middle; font-size: 10.2px;" transform="translate(158.3046875,123)" y="0" x="0" id="text-entity-Project-c2395ed5-a5fa-58df-9cbe-a2926add311c-attr-5-comment" class="er entityLabel">nullable</text><rect height="22" width="53.6640625" y="134" x="0" class="er attributeBoxEven"/><text style="dominant-baseline: middle; font-size: 10.2px;" transform="translate(5,145)" y="0" x="0" id="text-entity-Project-c2395ed5-a5fa-58df-9cbe-a2926add311c-attr-6-type" class="er entityLabel">String</text><rect height="22" width="78.078125" y="134" x="53.6640625" class="er attributeBoxEven"/><text style="dominant-baseline: middle; font-size: 10.2px;" transform="translate(58.6640625,145)" y="0" x="0" id="text-entity-Project-c2395ed5-a5fa-58df-9cbe-a2926add311c-attr-6-name" class="er entityLabel">goal</text><rect height="22" width="21.5625" y="134" x="131.7421875" class="er attributeBoxEven"/><text style="dominant-baseline: middle; font-size: 10.2px;" transform="translate(136.7421875,145)" y="0" x="0" id="text-entity-Project-c2395ed5-a5fa-58df-9cbe-a2926add311c-attr-6-key" class="er entityLabel"/><rect height="22" width="46.78125" y="134" x="153.3046875" class="er attributeBoxEven"/><text style="dominant-baseline: middle; font-size: 10.2px;" transform="translate(158.3046875,145)" y="0" x="0" id="text-entity-Project-c2395ed5-a5fa-58df-9cbe-a2926add311c-attr-6-comment" class="er entityLabel"/><rect height="22" width="53.6640625" y="156" x="0" class="er attributeBoxOdd"/><text style="dominant-baseline: middle; font-size: 10.2px;" transform="translate(5,167)" y="0" x="0" id="text-entity-Project-c2395ed5-a5fa-58df-9cbe-a2926add311c-attr-7-type" class="er entityLabel">DateTime</text><rect height="22" width="78.078125" y="156" x="53.6640625" class="er attributeBoxOdd"/><text style="dominant-baseline: middle; font-size: 10.2px;" transform="translate(58.6640625,167)" y="0" x="0" id="text-entity-Project-c2395ed5-a5fa-58df-9cbe-a2926add311c-attr-7-name" class="er entityLabel">estimatedStart</text><rect height="22" width="21.5625" y="156" x="131.7421875" class="er attributeBoxOdd"/><text style="dominant-baseline: middle; font-size: 10.2px;" transform="translate(136.7421875,167)" y="0" x="0" id="text-entity-Project-c2395ed5-a5fa-58df-9cbe-a2926add311c-attr-7-key" class="er entityLabel"/><rect height="22" width="46.78125" y="156" x="153.3046875" class="er attributeBoxOdd"/><text style="dominant-baseline: middle; font-size: 10.2px;" transform="translate(158.3046875,167)" y="0" x="0" id="text-entity-Project-c2395ed5-a5fa-58df-9cbe-a2926add311c-attr-7-comment" class="er entityLabel"/></g><rect height="14" width="22.625" y="358.2029724121094" x="394.41558837890625" class="er relationshipLabelBox"/><text style="text-anchor: middle; dominant-baseline: middle; font-size: 12px;" y="365.2029724121094" x="405.72808837890625" id="rel1" class="er relationshipLabel">user</text><rect height="14" width="22.625" y="296.74017333984375" x="610.1641235351562" class="er relationshipLabelBox"/><text style="text-anchor: middle; dominant-baseline: middle; font-size: 12px;" y="303.74017333984375" x="621.4766235351562" id="rel2" class="er relationshipLabel">user</text><rect height="14" width="22.625" y="320.18890380859375" x="846.8864135742188" class="er relationshipLabelBox"/><text style="text-anchor: middle; dominant-baseline: middle; font-size: 12px;" y="327.18890380859375" x="858.1989135742188" id="rel3" class="er relationshipLabel">user</text><rect height="14" width="39.4375" y="287.93017578125" x="1004.95751953125" class="er relationshipLabelBox"/><text style="text-anchor: middle; dominant-baseline: middle; font-size: 12px;" y="294.93017578125" x="1024.67626953125" id="rel4" class="er relationshipLabel">project</text><rect height="14" width="55.21875" y="301.0008850097656" x="1194.1728515625" class="er relationshipLabelBox"/><text style="text-anchor: middle; dominant-baseline: middle; font-size: 12px;" y="308.0008850097656" x="1221.7822265625" id="rel5" class="er relationshipLabel">enum:role</text></svg>